<?xml version="1.0" standalone="no"?>
<!DOCTYPE svg PUBLIC "-//W3C//DTD SVG 20010904//EN"
 "http://www.w3.org/TR/2001/REC-SVG-20010904/DTD/svg10.dtd">
<svg version="1.0" xmlns="http://www.w3.org/2000/svg"
 width="32.000000pt" height="32.000000pt" viewBox="0 0 32.000000 32.000000"
 preserveAspectRatio="xMidYMid meet">

<g transform="translate(0.000000,32.000000) scale(0.100000,-0.100000)"
fill="#000000" stroke="none">
<path d="M20 160 l0 -150 145 0 c80 0 145 4 145 8 0 5 -8 16 -18 25 -15 14
-40 17 -120 17 l-102 0 0 100 0 100 103 0 c88 0 106 3 120 18 10 10 17 22 17
25 0 4 -65 7 -145 7 l-145 0 0 -150z m260 125 c-10 -12 -36 -15 -116 -15
l-104 0 0 -110 0 -110 104 0 c80 0 106 -3 116 -15 11 -13 -3 -15 -119 -15
l-131 0 0 140 0 140 131 0 c116 0 130 -2 119 -15z"/>
<path d="M143 223 c-30 -15 -33 -21 -33 -63 0 -44 2 -47 37 -64 35 -16 39 -17
75 0 36 16 38 19 38 64 0 43 -2 47 -35 63 -42 20 -41 20 -82 0z m78 -10 c24
-14 29 -24 29 -54 0 -30 -5 -39 -33 -54 -33 -17 -35 -17 -65 1 -26 15 -32 25
-32 54 0 28 6 39 28 52 34 22 37 22 73 1z"/>
</g>
</svg>
